<svg width="21" height="21" viewBox="0 0 21 21" fill="none" xmlns="http://www.w3.org/2000/svg">
<path d="M3.47996 8.61C3.51516 8.17145 3.71425 7.76226 4.03758 7.4639C4.36091 7.16554 4.78476 6.99991 5.22471 7H15.7755C16.2154 6.99991 16.6393 7.16554 16.9626 7.4639C17.2859 7.76226 17.485 8.17145 17.5202 8.61L18.2228 17.36C18.2422 17.6008 18.2114 17.843 18.1326 18.0713C18.0537 18.2996 17.9284 18.5092 17.7646 18.6867C17.6008 18.8643 17.402 19.006 17.1807 19.1029C16.9595 19.1998 16.7205 19.2499 16.479 19.25H4.52121C4.27964 19.2499 4.04071 19.1998 3.81944 19.1029C3.59818 19.006 3.39938 18.8643 3.23557 18.6867C3.07176 18.5092 2.94648 18.2996 2.86761 18.0713C2.78875 17.843 2.75801 17.6008 2.77734 17.36L3.47996 8.61V8.61Z" stroke="black" stroke-width="2" stroke-linecap="round" stroke-linejoin="round"/>
<path d="M14 9.625V5.25C14 4.32174 13.6313 3.4315 12.9749 2.77513C12.3185 2.11875 11.4283 1.75 10.5 1.75C9.57174 1.75 8.6815 2.11875 8.02513 2.77513C7.36875 3.4315 7 4.32174 7 5.25V9.625" stroke="black" stroke-width="2" stroke-linecap="round" stroke-linejoin="round"/>
</svg>
